<?xml version="1.0" encoding="UTF-8"?>
<!DOCTYPE svg PUBLIC "-//W3C//DTD SVG 1.1//EN" "http://www.w3.org/Graphics/SVG/1.1/DTD/svg11.dtd">
<!-- Creator: CorelDRAW X8 -->
<svg xmlns="http://www.w3.org/2000/svg" xml:space="preserve" width="127mm" height="127mm" version="1.1" style="shape-rendering:geometricPrecision; text-rendering:geometricPrecision; image-rendering:optimizeQuality; fill-rule:evenodd; clip-rule:evenodd"
viewBox="0 0 12700 12700"
 xmlns:xlink="http://www.w3.org/1999/xlink">
 <defs>
  <style type="text/css">
   <![CDATA[
    .fil0 {fill:#3EBAD6}
    .fil3 {fill:#40BAD5}
    .fil1 {fill:#3EBAD6;fill-rule:nonzero}
    .fil2 {fill:#FBBF17;fill-rule:nonzero}
   ]]>
  </style>
 </defs>
 <g id="Warstwa_x0020_1">
  <metadata id="CorelCorpID_0Corel-Layer"/>
  <path class="fil0" d="M6350 4558c584,0 1058,474 1058,1058 0,584 -474,1058 -1058,1058 -584,0 -1058,-474 -1058,-1058 0,-584 474,-1058 1058,-1058zm0 95c531,0 962,431 962,963 0,531 -431,962 -962,962 -531,0 -962,-431 -962,-962 0,-532 431,-963 962,-963z"/>
  <path class="fil1" d="M6938 6946c-18,0 -36,-4 -52,-10 -17,-7 -31,-16 -43,-28 -13,-11 -23,-24 -30,-39 -7,-15 -11,-32 -11,-49 0,-18 4,-35 11,-51 7,-15 17,-28 30,-40 12,-11 26,-20 43,-26 16,-7 34,-10 52,-10 19,0 37,3 53,10 17,6 32,15 44,26 13,12 22,25 30,40 7,16 11,33 11,51 0,17 -4,34 -11,49 -8,15 -17,28 -30,39 -12,12 -27,21 -44,28 -16,6 -34,10 -53,10z"/>
  <path class="fil2" d="M3487 7112l103 125c8,-17 17,-33 29,-48 12,-15 25,-28 41,-40 16,-11 33,-20 53,-27 20,-7 42,-10 65,-10 19,0 38,1 56,4 18,3 38,8 59,16 1,1 1,7 2,16 1,10 2,21 2,36 0,10 -1,23 -2,37 -1,15 -3,30 -6,45 -3,15 -8,30 -13,45 -6,15 -13,27 -22,38l-19 5c-13,-7 -28,-13 -45,-18 -16,-4 -33,-7 -50,-7 -27,0 -49,2 -68,6 -17,4 -32,8 -43,12 -14,4 -25,10 -32,16l0 777 -215 0 0 -817 -79 -81 0 -130 184 0zm517 528c0,-92 11,-172 34,-239 24,-66 57,-121 99,-164 42,-43 92,-75 150,-95 59,-20 123,-30 193,-30 65,0 123,10 174,30 51,20 94,48 130,85 35,37 62,80 81,131 19,51 28,107 28,169 0,21 -1,41 -3,58 -2,19 -4,34 -7,47 -3,16 -6,30 -9,42l-657 0c1,59 7,108 19,147 12,39 30,70 53,92 24,22 54,38 90,47 36,9 79,14 128,14 42,0 80,-3 114,-8 33,-6 61,-12 85,-19 26,-8 51,-17 72,-28 10,24 18,45 23,66 6,19 10,37 13,52 3,17 5,32 6,46 -22,11 -49,21 -80,29 -27,8 -60,14 -98,21 -39,6 -84,9 -135,9 -80,0 -151,-9 -213,-26 -63,-17 -116,-46 -159,-85 -43,-40 -76,-92 -98,-155 -23,-64 -33,-143 -33,-236zm675 -114l0 -29c0,-36 -5,-68 -16,-96 -10,-27 -24,-50 -42,-69 -18,-19 -40,-33 -64,-43 -25,-10 -52,-15 -81,-15 -42,0 -79,5 -111,14 -32,10 -59,25 -81,45 -21,20 -37,46 -48,78 -11,33 -16,71 -16,115l459 0zm366 -299l0 -113 184 0 86 87 27 -13c4,-3 14,-8 30,-16 16,-8 37,-17 62,-25 24,-9 52,-16 83,-23 31,-7 63,-10 95,-10 59,0 108,7 146,21 39,15 73,35 101,62 11,-7 27,-15 47,-25 21,-10 45,-19 72,-28 27,-8 56,-16 88,-22 31,-5 63,-8 95,-8 56,0 107,8 154,24 46,17 86,40 119,70 33,30 59,67 77,109 18,42 28,90 28,142l0 681 -216 0 0 -670c0,-72 -19,-125 -58,-159 -39,-34 -91,-51 -158,-51 -40,0 -77,3 -111,10 -34,7 -60,15 -76,23 9,21 16,43 21,67 6,24 8,48 8,72l0 708 -215 0 0 -690c0,-64 -13,-112 -40,-143 -27,-32 -73,-47 -137,-47 -31,0 -60,3 -87,8 -26,7 -49,13 -69,21 -23,9 -43,18 -63,29l0 822 -214 0 0 -828 -79 -85zm1778 -113l208 0 0 859 60 42 0 125 -57 0 -3 0 0 0c-66,0 -117,-13 -153,-40 -37,-27 -55,-71 -55,-133l0 -853zm533 198l-79 -85 0 -113 184 0 87 78 29 -5c4,-3 15,-9 32,-17 17,-8 38,-16 63,-25 25,-8 54,-15 86,-22 32,-6 66,-9 101,-9 56,0 106,8 150,24 44,17 81,40 111,70 30,30 52,67 68,109 15,42 23,90 23,143l0 680 -215 0 0 -670c0,-72 -16,-125 -46,-160 -31,-33 -79,-50 -145,-50 -33,0 -63,3 -91,9 -28,6 -53,13 -74,21 -25,8 -48,18 -69,30l0 820 -215 0 0 -828zm1077 335c0,-91 14,-170 40,-238 27,-67 63,-122 109,-167 46,-44 99,-77 159,-98 60,-22 124,-32 191,-32 26,0 48,1 69,3 19,3 36,6 50,9 17,4 32,8 45,12l0 -441 213 0 0 1281 88 99 0 65 -200 0 -69 -82 -34 0c-4,3 -11,8 -21,17 -10,9 -25,18 -44,28 -19,9 -43,17 -70,25 -28,8 -60,12 -98,12 -49,0 -100,-10 -150,-29 -51,-19 -97,-49 -138,-89 -41,-40 -75,-91 -101,-153 -26,-62 -39,-136 -39,-222zm225 11c0,60 6,111 19,154 13,43 32,78 56,105 24,28 53,48 88,60 35,13 74,19 117,19 17,0 35,-2 53,-7 19,-5 36,-12 52,-18 17,-8 35,-16 53,-26l0 -646c-9,-8 -22,-15 -39,-22 -17,-8 -40,-11 -71,-11 -105,0 -186,33 -243,100 -57,67 -85,164 -85,292z"/>
  <path class="fil3" d="M6984 5741c25,-38 38,-85 38,-125 0,-62 -27,-119 -74,-157 10,-25 16,-51 16,-77 0,-81 -48,-157 -119,-193 11,-88 -47,-170 -133,-191 -33,-77 -108,-130 -187,-130 -73,0 -139,43 -175,105 -36,-62 -102,-105 -175,-105 -79,0 -154,53 -187,130 -87,21 -144,103 -133,191 -71,36 -118,112 -118,193 0,26 5,52 15,77 -47,38 -74,95 -74,157 0,41 13,88 38,125 -25,34 -38,75 -38,117 0,55 22,106 61,145 -20,121 77,244 202,244 1,0 2,0 3,0 41,71 118,117 202,117 86,0 164,-52 204,-127 40,75 118,127 205,127 83,0 160,-46 201,-117 1,0 2,0 3,0 111,0 205,-98 205,-214 0,-9 -1,-19 -3,-30 39,-39 61,-90 61,-145 0,-42 -13,-83 -38,-117zm-663 -431c-17,-10 -37,-16 -59,-16 -16,0 -29,13 -29,30 0,16 13,29 29,29 33,0 59,26 59,58l0 556c-43,-49 -106,-80 -175,-80 -17,0 -30,14 -30,30 0,16 13,29 30,29 96,0 175,78 175,175 0,100 -80,184 -175,184 -68,0 -130,-40 -159,-102 -5,-11 -17,-18 -30,-16 -2,0 -4,0 -6,0 -83,12 -177,-82 -151,-188 2,-11 -2,-22 -10,-29 -34,-28 -53,-69 -53,-112 0,-26 7,-52 21,-75 35,29 79,46 125,46 16,0 29,-13 29,-29 0,-16 -13,-29 -29,-29 -80,0 -146,-73 -146,-155 0,-50 25,-96 68,-123 13,-9 17,-26 10,-39 -13,-23 -20,-47 -20,-72 0,-79 64,-155 146,-155 78,0 146,73 146,155 0,16 13,29 29,29 16,0 30,-13 30,-29 0,-116 -94,-213 -205,-213 -10,0 -19,1 -29,2 0,-1 0,-1 0,-2 0,-65 53,-117 117,-117 31,0 60,12 82,34 12,12 30,12 42,0 11,-11 11,-30 0,-41 -27,-27 -61,-44 -97,-49 25,-39 68,-70 119,-70 78,0 146,73 146,155l0 229zm496 519c46,0 90,-17 125,-46 14,23 22,49 22,75 0,43 -20,84 -54,112 -8,7 -12,18 -9,29 3,13 4,24 4,34 0,91 -82,164 -156,154 -2,0 -4,0 -6,0 -13,-2 -25,5 -30,16 -29,62 -91,102 -158,102 -95,0 -176,-84 -176,-184 0,-97 79,-175 176,-175 16,0 29,-13 29,-29 0,-16 -13,-30 -29,-30 -70,0 -133,31 -176,80l0 -556c0,-32 26,-58 59,-58 16,0 29,-13 29,-29 0,-17 -13,-30 -29,-30 -22,0 -42,6 -59,16l0 -229c0,-82 68,-155 146,-155 51,0 94,31 119,70 -36,5 -70,22 -97,49 -11,11 -11,30 0,41 12,12 30,12 42,0 22,-22 51,-34 82,-34 65,0 117,52 117,117 0,1 0,1 0,2 -9,-1 -19,-2 -29,-2 -111,0 -204,97 -204,213 0,16 13,29 29,29 16,0 29,-13 29,-29 0,-82 68,-155 146,-155 82,0 146,76 146,155 0,25 -7,49 -19,72 -8,13 -4,30 9,39 43,27 69,73 69,123 0,83 -68,155 -147,155 -16,0 -29,13 -29,29 0,16 13,29 29,29z"/>
  <path class="fil3" d="M6255 5493c-11,-12 -29,-13 -41,-2 -94,84 -244,17 -244,-109 0,-16 -13,-29 -29,-29 -16,0 -29,13 -29,29 0,101 74,186 171,202 -11,35 -44,61 -84,61 -16,0 -29,13 -29,29 0,16 13,29 29,29 72,0 131,-51 144,-118 41,-6 79,-23 110,-51 12,-10 13,-29 2,-41z"/>
  <path class="fil3" d="M5941 6004c-16,0 -29,13 -29,29 0,17 13,30 29,30 78,0 146,72 146,155 0,16 13,29 29,29 16,0 30,-13 30,-29 0,-116 -94,-214 -205,-214z"/>
  <path class="fil3" d="M6175 5771c-99,0 -184,54 -229,133 -8,14 -3,32 11,40 14,8 32,3 40,-11 35,-62 101,-104 178,-104 16,0 29,-13 29,-29 0,-16 -13,-29 -29,-29z"/>
  <path class="fil3" d="M6701 5645c-40,0 -73,-26 -84,-61 97,-16 171,-101 171,-202 0,-16 -13,-29 -29,-29 -16,0 -29,13 -29,29 0,81 -66,146 -146,146 -36,0 -71,-13 -98,-37 -12,-11 -30,-10 -41,2 -11,12 -10,31 2,41 31,28 70,45 110,51 13,67 72,118 144,118 16,0 29,-13 29,-29 0,-16 -13,-29 -29,-29z"/>
  <path class="fil3" d="M6759 6004c-111,0 -204,98 -204,214 0,16 13,29 29,29 16,0 29,-13 29,-29 0,-83 68,-155 146,-155 16,0 29,-13 29,-30 0,-16 -13,-29 -29,-29z"/>
  <path class="fil3" d="M6754 5904c-45,-79 -129,-133 -229,-133 -16,0 -29,13 -29,29 0,16 13,29 29,29 77,0 143,42 178,104 8,14 26,19 40,11 14,-8 19,-26 11,-40z"/>
 </g>
</svg>
